<svg width="207" height="83" viewBox="0 0 207 83" fill="none" xmlns="http://www.w3.org/2000/svg">
<path d="M135.473 31.5599C135.006 14.6642 127.893 4.4423 115.958 3.51233C112.736 3.26639 109.675 4.21173 106.856 6.34066C105.63 7.2655 104.514 8.36711 103.5 9.59425C102.487 8.36711 101.371 7.2655 100.144 6.34066C97.3251 4.21173 94.2639 3.26639 91.042 3.51233C79.1068 4.4423 71.9942 14.6668 71.5268 31.5599C71.0623 48.412 79.0601 57.4298 79.3989 57.8064L81.5546 56.3051C81.4787 56.2206 73.8373 47.5358 74.2784 31.6188C74.7136 15.8657 80.7543 6.74031 91.2845 5.91794C93.7381 5.72324 96.1129 6.48412 98.3475 8.16984C99.6035 9.11774 100.789 10.3603 101.876 11.818C98.4789 16.9904 96.6065 23.618 96.2268 29.1005C95.9435 33.1636 96.9717 35.5641 98.3095 36.9885C98.7214 37.5496 99.4107 38.0312 100.246 38.3899C100.976 38.7332 101.672 38.9022 102.189 38.9791C102.618 39.0431 103.059 39.0662 103.497 39.0611C103.935 39.0662 104.374 39.0431 104.806 38.9791C105.323 38.9022 106.018 38.7332 106.748 38.3899C107.584 38.0312 108.273 37.5496 108.685 36.9885C110.023 35.5667 111.051 33.1636 110.768 29.1005C110.388 23.618 108.515 16.993 105.118 11.818C106.205 10.3603 107.391 9.11774 108.647 8.16984C110.879 6.48412 113.256 5.72324 115.71 5.91794C126.24 6.73775 132.281 15.8657 132.716 31.6188C133.157 47.5358 125.516 56.218 125.44 56.3051L127.596 57.8064C127.937 57.4298 135.935 48.412 135.468 31.5599H135.473ZM108.025 29.2465C108.273 32.8357 107.411 35.2592 105.58 36.2046C105.104 36.4095 104.461 36.594 103.745 36.6401C103.664 36.6401 103.582 36.6427 103.503 36.6401C103.421 36.6401 103.342 36.6401 103.261 36.6401C102.545 36.594 101.902 36.4095 101.426 36.2046C99.5947 35.2592 98.733 32.8357 98.9813 29.2465C99.3523 23.9024 101.044 18.5147 103.506 14.2851C105.965 18.5147 107.657 23.9024 108.028 29.2465H108.025Z" fill="url(#paint0_linear_281_2213)"/>
<path d="M18.636 67.7312H18.414C18.0548 67.7312 17.7188 67.8977 17.5348 68.1693L13.8602 73.5492L10.1856 68.1693C10.0016 67.8977 9.66564 67.7312 9.30635 67.7312H9.08436C8.51768 67.7312 8.05908 68.1334 8.05908 68.6304V77.3024C8.05908 77.7994 8.51768 78.2016 9.08436 78.2016H9.36185C9.92853 78.2016 10.3871 77.7994 10.3871 77.3024V72.4194L12.8671 76.0548C13.0511 76.3263 13.387 76.4928 13.7463 76.4928H13.9683C14.3276 76.4928 14.6635 76.3263 14.8475 76.0548L17.3274 72.4194V77.3024C17.3274 77.7994 17.786 78.2016 18.3527 78.2016H18.6302C19.1969 78.2016 19.6555 77.7994 19.6555 77.3024V68.6304C19.6555 68.1334 19.1969 67.7312 18.6302 67.7312H18.636Z" fill="#1C1B4B"/>
<path d="M32.838 76.1571H27.6532V73.8873H31.9617C32.5284 73.8873 32.987 73.4851 32.987 72.9881V72.7447C32.987 72.2477 32.5284 71.8455 31.9617 71.8455H27.6532V69.7729H32.7124C33.2791 69.7729 33.7377 69.3707 33.7377 68.8737V68.6277C33.7377 68.1307 33.2791 67.7285 32.7124 67.7285H26.3505C25.7838 67.7285 25.3252 68.1307 25.3252 68.6277V77.2997C25.3252 77.7967 25.7838 78.1989 26.3505 78.1989H32.838C33.4047 78.1989 33.8633 77.7967 33.8633 77.2997V77.0563C33.8633 76.5593 33.4047 76.1571 32.838 76.1571Z" fill="#1C1B4B"/>
<path d="M46.8033 73.6133C47.1013 73.2931 47.3349 72.9216 47.4927 72.5117C47.6504 72.1095 47.7293 71.6868 47.7293 71.2564C47.7293 70.826 47.6358 70.3879 47.4518 69.9703C47.2707 69.5629 47.0166 69.1915 46.6923 68.8636C46.3593 68.5279 45.9562 68.2538 45.4918 68.0514C45.0069 67.8388 44.4782 67.7312 43.9203 67.7312H39.8951C39.3285 67.7312 38.8699 68.1334 38.8699 68.6304V77.3024C38.8699 77.7994 39.3285 78.2016 39.8951 78.2016H40.1726C40.7393 78.2016 41.1979 77.7994 41.1979 77.3024V74.7943H43.2894L45.4918 77.7892C45.6817 78.0454 46.0059 78.2016 46.3535 78.2016H46.6865C47.0633 78.2016 47.408 78.0223 47.5862 77.7328C47.7643 77.4433 47.7497 77.0923 47.5482 76.8156L45.7634 74.3895C46.1607 74.1872 46.5112 73.9284 46.8004 73.6159L46.8033 73.6133ZM41.2008 69.773H43.9203C44.1043 69.773 44.2737 69.8063 44.4373 69.8806C44.6301 69.9652 44.7937 70.0728 44.9368 70.2137C45.0828 70.3546 45.1938 70.5134 45.2786 70.7004C45.3603 70.8798 45.4012 71.0617 45.4012 71.2589C45.4012 71.4562 45.3662 71.6534 45.2902 71.8456C45.2172 72.03 45.1179 72.1889 44.9865 72.3323C44.8638 72.463 44.7177 72.568 44.5395 72.65C44.3935 72.7192 44.2212 72.7525 44.0196 72.7525H41.2008V69.7756V69.773Z" fill="#1C1B4B"/>
<path d="M54.0708 67.7312H53.7933C53.2271 67.7312 52.7681 68.1338 52.7681 68.6304V77.2998C52.7681 77.7965 53.2271 78.1991 53.7933 78.1991H54.0708C54.6371 78.1991 55.0961 77.7965 55.0961 77.2998V68.6304C55.0961 68.1338 54.6371 67.7312 54.0708 67.7312Z" fill="#1C1B4B"/>
<path d="M69.2219 69.3119C68.74 68.8226 68.1324 68.4332 67.4197 68.1513C66.7099 67.8721 65.8832 67.7312 64.9602 67.7312H61.785C61.2184 67.7312 60.7598 68.1334 60.7598 68.6304V77.3024C60.7598 77.7994 61.2184 78.2016 61.785 78.2016H64.9602C65.7985 78.2016 66.5755 78.0735 67.2736 77.8225C67.9863 77.5663 68.5997 77.1948 69.0992 76.7234C69.59 76.2572 69.9726 75.6935 70.2384 75.0479C70.4955 74.4203 70.6269 73.7158 70.6269 72.9549C70.6269 72.2709 70.5159 71.615 70.2939 71.0027C70.0632 70.3648 69.7039 69.7961 69.2278 69.3119H69.2219ZM64.9602 76.1572H63.0878V69.773H64.9602C65.5152 69.773 66.003 69.8524 66.4148 70.0062C66.8209 70.1599 67.1538 70.3623 67.4284 70.6287C67.7088 70.9003 67.9133 71.2205 68.0623 71.6022C68.2171 72.0044 68.293 72.4579 68.293 72.9523C68.293 73.4468 68.2171 73.8977 68.0652 74.305C67.9221 74.6918 67.7176 75.0146 67.4401 75.2913C67.1714 75.5603 66.8442 75.7653 66.4382 75.9216C66.0263 76.0778 65.5298 76.1572 64.9602 76.1572Z" fill="#1C1B4B"/>
<path d="M76.919 67.7312H76.6415C76.0752 67.7312 75.6162 68.1338 75.6162 68.6304V77.2998C75.6162 77.7965 76.0752 78.1991 76.6415 78.1991H76.919C77.4852 78.1991 77.9443 77.7965 77.9443 77.2998V68.6304C77.9443 68.1338 77.4852 67.7312 76.919 67.7312Z" fill="#1C1B4B"/>
<path d="M89.0117 68.2718C88.8481 67.9438 88.4801 67.7312 88.0711 67.7312H87.8199C87.4139 67.7312 87.0429 67.9438 86.8794 68.2692L82.5621 76.9412C82.4248 77.2204 82.454 77.5407 82.6439 77.7943C82.8338 78.0479 83.1551 78.2016 83.5027 78.2016H83.8094C84.2154 78.2016 84.5864 77.989 84.75 77.6636L86.0264 75.1017H89.85L91.1265 77.6636C91.2901 77.9916 91.6581 78.2016 92.0671 78.2016H92.3738C92.7185 78.2016 93.0427 78.0479 93.2296 77.7943C93.4195 77.5407 93.4516 77.2204 93.3114 76.9437L89.0088 68.2718H89.0117ZM87.0371 73.0548L87.9426 71.2384L88.8394 73.0548H87.0371Z" fill="#1C1B4B"/>
<path d="M107.023 67.7311H106.745C106.179 67.7311 105.72 68.1333 105.72 68.6303V74.3766L99.9861 68.0693C99.7904 67.8566 99.4954 67.7311 99.1858 67.7311H98.9755C98.4088 67.7311 97.9502 68.1333 97.9502 68.6303V77.3023C97.9502 77.7993 98.4088 78.2015 98.9755 78.2015H99.253C99.8196 78.2015 100.278 77.7993 100.278 77.3023V71.6764L105.901 77.8608C106.097 78.0734 106.392 78.1989 106.702 78.1989H107.023C107.59 78.1989 108.048 77.7967 108.048 77.2997V68.6277C108.048 68.1307 107.59 67.7285 107.023 67.7285V67.7311Z" fill="#1C1B4B"/>
<path d="M129.664 67.7312H121.812C121.245 67.7312 120.787 68.1334 120.787 68.6304V68.8764C120.787 69.3734 121.245 69.7756 121.812 69.7756H124.575V77.3024C124.575 77.7994 125.034 78.2016 125.6 78.2016H125.881C126.448 78.2016 126.906 77.7994 126.906 77.3024V69.7756H129.666C130.233 69.7756 130.692 69.3734 130.692 68.8764V68.6304C130.692 68.1334 130.233 67.7312 129.666 67.7312H129.664Z" fill="#1C1B4B"/>
<path d="M143.156 73.6133C143.454 73.2931 143.687 72.9216 143.845 72.5117C144.003 72.1095 144.082 71.6893 144.082 71.2564C144.082 70.8234 143.988 70.3879 143.804 69.9729C143.623 69.5655 143.366 69.1915 143.045 68.8661C142.712 68.5305 142.309 68.2564 141.844 68.0514C141.359 67.8388 140.831 67.7312 140.273 67.7312H136.25C135.684 67.7312 135.225 68.1334 135.225 68.6304V77.3024C135.225 77.7994 135.684 78.2016 136.25 78.2016H136.528C137.095 78.2016 137.553 77.7994 137.553 77.3024V74.7943H139.645L141.847 77.7892C142.037 78.0454 142.361 78.2016 142.709 78.2016H143.042C143.416 78.2016 143.763 78.0223 143.941 77.7328C144.12 77.4433 144.105 77.0923 143.903 76.8156L142.119 74.3895C142.516 74.1872 142.864 73.9284 143.156 73.6159V73.6133ZM137.55 69.773H140.27C140.454 69.773 140.623 69.8063 140.787 69.8806C140.979 69.9652 141.143 70.0728 141.286 70.2111C141.432 70.352 141.546 70.5108 141.628 70.6953C141.71 70.8772 141.751 71.0591 141.751 71.2538C141.751 71.4485 141.713 71.6483 141.64 71.8405C141.567 72.0249 141.467 72.1838 141.336 72.3272C141.213 72.4604 141.067 72.5629 140.889 72.6475C140.74 72.7166 140.571 72.7499 140.366 72.7499H137.547V69.773H137.55Z" fill="#1C1B4B"/>
<path d="M154.369 68.2718C154.206 67.9438 153.838 67.7312 153.429 67.7312H153.178C152.769 67.7312 152.401 67.9438 152.237 68.2692L147.923 76.9412C147.785 77.2204 147.815 77.5407 148.005 77.7943C148.194 78.0479 148.516 78.2016 148.863 78.2016H149.17C149.576 78.2016 149.947 77.989 150.108 77.6636L151.384 75.1017H155.208L156.484 77.6636C156.648 77.9916 157.016 78.2016 157.422 78.2016H157.729C158.073 78.2016 158.397 78.0479 158.587 77.7943C158.777 77.5407 158.806 77.2204 158.669 76.9437L154.366 68.2718H154.369ZM152.395 73.0548L153.3 71.2384L154.197 73.0548H152.395Z" fill="#1C1B4B"/>
<path d="M171.282 67.7312H170.975C170.566 67.7312 170.198 67.9438 170.035 68.2718L166.824 74.7456L163.603 68.2718C163.439 67.9438 163.071 67.7312 162.662 67.7312H162.37C162.025 67.7312 161.701 67.8849 161.511 68.1385C161.321 68.3922 161.292 68.7124 161.429 68.9891L165.732 77.6585C165.896 77.9864 166.264 78.1991 166.673 78.1991H166.979C167.388 78.1991 167.756 77.9864 167.92 77.6585L172.222 68.9891C172.36 68.7098 172.331 68.3922 172.141 68.1385C171.951 67.8849 171.629 67.7312 171.282 67.7312Z" fill="#1C1B4B"/>
<path d="M184.368 76.1571H179.183V73.8873H183.492C184.058 73.8873 184.517 73.4851 184.517 72.9881V72.7447C184.517 72.2477 184.058 71.8455 183.492 71.8455H179.183V69.7729H184.242C184.809 69.7729 185.268 69.3707 185.268 68.8737V68.6277C185.268 68.1307 184.809 67.7285 184.242 67.7285H177.88C177.314 67.7285 176.855 68.1307 176.855 68.6277V77.2997C176.855 77.7967 177.314 78.1989 177.88 78.1989H184.368C184.935 78.1989 185.393 77.7967 185.393 77.2997V77.0563C185.393 76.5593 184.935 76.1571 184.368 76.1571Z" fill="#1C1B4B"/>
<path d="M197.916 76.1572H192.731V68.6304C192.731 68.1334 192.272 67.7312 191.706 67.7312H191.428C190.861 67.7312 190.403 68.1334 190.403 68.6304V77.3024C190.403 77.7994 190.861 78.2016 191.428 78.2016H197.916C198.482 78.2016 198.941 77.7994 198.941 77.3024V77.059C198.941 76.562 198.482 76.1598 197.916 76.1598V76.1572Z" fill="#1C1B4B"/>
<defs>
<linearGradient id="paint0_linear_281_2213" x1="71.5063" y1="30.6401" x2="135.494" y2="30.6401" gradientUnits="userSpaceOnUse">
<stop stop-color="#1D1B4C"/>
<stop offset="0.06" stop-color="#1B2553"/>
<stop offset="0.17" stop-color="#174168"/>
<stop offset="0.31" stop-color="#106E89"/>
<stop offset="0.47" stop-color="#06ACB7"/>
<stop offset="0.5" stop-color="#05B7C0"/>
<stop offset="1" stop-color="#BACD34"/>
</linearGradient>
</defs>
</svg>
