<svg width="209" height="95" viewBox="0 0 209 95" fill="none" xmlns="http://www.w3.org/2000/svg">
<path d="M136.782 36.1228C136.31 16.7844 129.129 5.08458 117.078 4.02016C113.825 3.73866 110.735 4.82067 107.889 7.2574C106.65 8.31595 105.523 9.57683 104.5 10.9814C103.477 9.57683 102.35 8.31595 101.111 7.2574C98.2654 4.82067 95.1746 3.73866 91.9216 4.02016C79.871 5.08458 72.6896 16.7873 72.2178 36.1228C71.7488 55.4113 79.8238 65.7329 80.1659 66.164L82.3425 64.4456C82.2658 64.3489 74.5506 54.4085 74.9959 36.1902C75.4354 18.1596 81.5344 7.71483 92.1664 6.77357C94.6437 6.55072 97.0414 7.4216 99.2976 9.35104C100.566 10.436 101.763 11.8581 102.86 13.5266C99.4303 19.4469 97.5398 27.0327 97.1564 33.3078C96.8704 37.9584 97.9085 40.7059 99.2592 42.3363C99.6751 42.9784 100.371 43.5297 101.215 43.9402C101.952 44.3331 102.654 44.5267 103.176 44.6146C103.609 44.6879 104.055 44.7143 104.497 44.7085C104.939 44.7143 105.382 44.6879 105.818 44.6146C106.34 44.5267 107.042 44.3331 107.78 43.9402C108.623 43.5297 109.319 42.9784 109.735 42.3363C111.086 40.7088 112.124 37.9584 111.838 33.3078C111.454 27.0327 109.564 19.4498 106.134 13.5266C107.231 11.8581 108.428 10.436 109.697 9.35104C111.95 7.4216 114.35 6.55072 116.828 6.77357C127.46 7.7119 133.559 18.1596 133.998 36.1902C134.444 54.4085 126.728 64.3459 126.652 64.4456L128.828 66.164C129.173 65.7329 137.248 55.4113 136.776 36.1228H136.782ZM109.068 33.4749C109.319 37.583 108.449 40.357 106.6 41.439C106.119 41.6736 105.47 41.8847 104.748 41.9375C104.665 41.9375 104.583 41.9404 104.503 41.9375C104.42 41.9375 104.341 41.9375 104.258 41.9375C103.536 41.8847 102.887 41.6736 102.406 41.439C100.557 40.357 99.6869 37.583 99.9376 33.4749C100.312 27.3582 102.02 21.1916 104.506 16.3504C106.989 21.1916 108.697 27.3582 109.071 33.4749H109.068Z" fill="white"/>
<path d="M18.8161 77.5236H18.592C18.2292 77.5236 17.8901 77.7142 17.7043 78.025L13.9941 84.1828L10.284 78.025C10.0982 77.7142 9.75904 77.5236 9.39628 77.5236H9.17214C8.59999 77.5236 8.13696 77.984 8.13696 78.5529V88.4786C8.13696 89.0475 8.59999 89.5078 9.17214 89.5078H9.45232C10.0245 89.5078 10.4875 89.0475 10.4875 88.4786V82.8897L12.9914 87.0506C13.1772 87.3614 13.5164 87.552 13.8791 87.552H14.1033C14.466 87.552 14.8052 87.3614 14.991 87.0506L17.4949 82.8897V88.4786C17.4949 89.0475 17.9579 89.5078 18.53 89.5078H18.8102C19.3824 89.5078 19.8454 89.0475 19.8454 88.4786V78.5529C19.8454 77.984 19.3824 77.5236 18.8102 77.5236H18.8161Z" fill="white"/>
<path d="M33.1552 87.1679H27.9204V84.5699H32.2705C32.8426 84.5699 33.3057 84.1095 33.3057 83.5407V83.2621C33.3057 82.6932 32.8426 82.2329 32.2705 82.2329H27.9204V79.8607H33.0284C33.6006 79.8607 34.0636 79.4003 34.0636 78.8314V78.5499C34.0636 77.9811 33.6006 77.5207 33.0284 77.5207H26.605C26.0329 77.5207 25.5698 77.9811 25.5698 78.5499V88.4757C25.5698 89.0446 26.0329 89.5049 26.605 89.5049H33.1552C33.7274 89.5049 34.1904 89.0446 34.1904 88.4757V88.1971C34.1904 87.6283 33.7274 87.1679 33.1552 87.1679Z" fill="white"/>
<path d="M47.2555 84.2561C47.5563 83.8896 47.7922 83.4644 47.9515 82.9953C48.1107 82.5349 48.1904 82.0511 48.1904 81.5584C48.1904 81.0658 48.096 80.5644 47.9102 80.0864C47.7273 79.6202 47.4708 79.195 47.1434 78.8197C46.8072 78.4356 46.4002 78.1218 45.9313 77.8902C45.4417 77.6468 44.9079 77.5236 44.3446 77.5236H40.2805C39.7084 77.5236 39.2454 77.984 39.2454 78.5529V88.4786C39.2454 89.0475 39.7084 89.5078 40.2805 89.5078H40.5607C41.1329 89.5078 41.5959 89.0475 41.5959 88.4786V85.6079H43.7075L45.9313 89.0358C46.123 89.329 46.4503 89.5078 46.8013 89.5078H47.1375C47.5179 89.5078 47.866 89.3026 48.0459 88.9712C48.2258 88.6399 48.211 88.2382 48.0075 87.9215L46.2055 85.1446C46.6066 84.913 46.9605 84.6168 47.2525 84.2591L47.2555 84.2561ZM41.5988 79.8606H44.3446C44.5304 79.8606 44.7014 79.8988 44.8666 79.9838C45.0612 80.0806 45.2264 80.2037 45.3709 80.365C45.5184 80.5263 45.6304 80.7081 45.716 80.9221C45.7985 81.1274 45.8398 81.3356 45.8398 81.5614C45.8398 81.7872 45.8044 82.0129 45.7278 82.2329C45.654 82.444 45.5538 82.6258 45.421 82.79C45.2972 82.9395 45.1497 83.0598 44.9698 83.1536C44.8223 83.2328 44.6483 83.2709 44.4448 83.2709H41.5988V79.8636V79.8606Z" fill="white"/>
<path d="M54.5932 77.5236H54.313C53.7413 77.5236 53.2778 77.9844 53.2778 78.5529V88.4757C53.2778 89.0441 53.7413 89.5049 54.313 89.5049H54.5932C55.1649 89.5049 55.6284 89.0441 55.6284 88.4757V78.5529C55.6284 77.9844 55.1649 77.5236 54.5932 77.5236Z" fill="white"/>
<path d="M69.8908 79.3328C69.4042 78.7728 68.7908 78.3271 68.0712 78.0045C67.3545 77.6849 66.5199 77.5236 65.5879 77.5236H62.3821C61.81 77.5236 61.3469 77.984 61.3469 78.5529V88.4786C61.3469 89.0475 61.81 89.5078 62.3821 89.5078H65.5879C66.4343 89.5078 67.2188 89.3612 67.9237 89.0739C68.6433 88.7806 69.2627 88.3555 69.767 87.8159C70.2624 87.2823 70.6488 86.6371 70.9172 85.8982C71.1767 85.1798 71.3094 84.3734 71.3094 83.5025C71.3094 82.7196 71.1973 81.969 70.9732 81.2681C70.7402 80.538 70.3775 79.887 69.8967 79.3328H69.8908ZM65.5879 87.1679H63.6975V79.8606H65.5879C66.1483 79.8606 66.6408 79.9515 67.0566 80.1275C67.4666 80.3034 67.8028 80.5351 68.08 80.84C68.3631 81.1509 68.5696 81.5174 68.72 81.9543C68.8763 82.4147 68.953 82.9337 68.953 83.4996C68.953 84.0655 68.8763 84.5816 68.7229 85.0479C68.5784 85.4906 68.372 85.8601 68.0918 86.1768C67.8205 86.4847 67.4902 86.7193 67.0802 86.8981C66.6644 87.077 66.163 87.1679 65.5879 87.1679Z" fill="white"/>
<path d="M77.662 77.5236H77.3819C76.8101 77.5236 76.3467 77.9844 76.3467 78.5529V88.4757C76.3467 89.0441 76.8101 89.5049 77.3819 89.5049H77.662C78.2337 89.5049 78.6972 89.0441 78.6972 88.4757V78.5529C78.6972 77.9844 78.2337 77.5236 77.662 77.5236Z" fill="white"/>
<path d="M89.8718 78.1423C89.7067 77.767 89.3351 77.5236 88.9222 77.5236H88.6686C88.2586 77.5236 87.8841 77.767 87.7189 78.1394L83.3599 88.0652C83.2213 88.3848 83.2508 88.7513 83.4425 89.0416C83.6342 89.3319 83.9586 89.5078 84.3096 89.5078H84.6193C85.0292 89.5078 85.4038 89.2645 85.5689 88.8921L86.8577 85.9598H90.7183L92.0071 88.8921C92.1722 89.2674 92.5438 89.5078 92.9567 89.5078H93.2664C93.6144 89.5078 93.9418 89.3319 94.1305 89.0416C94.3222 88.7513 94.3547 88.3848 94.2131 88.0681L89.8689 78.1423H89.8718ZM87.8782 83.6169L88.7924 81.5379L89.6978 83.6169H87.8782Z" fill="white"/>
<path d="M108.057 77.5236H107.777C107.204 77.5236 106.741 77.984 106.741 78.5529V85.13L100.952 77.9107C100.754 77.6673 100.457 77.5236 100.144 77.5236H99.9317C99.3595 77.5236 98.8965 77.984 98.8965 78.5529V88.4786C98.8965 89.0475 99.3595 89.5079 99.9317 89.5079H100.212C100.784 89.5079 101.247 89.0475 101.247 88.4786V82.0393L106.924 89.1179C107.122 89.3612 107.42 89.5049 107.732 89.5049H108.057C108.629 89.5049 109.092 89.0446 109.092 88.4757V78.5499C109.092 77.9811 108.629 77.5207 108.057 77.5207V77.5236Z" fill="white"/>
<path d="M130.916 77.5236H122.989C122.417 77.5236 121.953 77.984 121.953 78.5529V78.8344C121.953 79.4032 122.417 79.8636 122.989 79.8636H125.779V88.4786C125.779 89.0475 126.242 89.5078 126.814 89.5078H127.097C127.669 89.5078 128.132 89.0475 128.132 88.4786V79.8636H130.919C131.491 79.8636 131.954 79.4032 131.954 78.8344V78.5529C131.954 77.984 131.491 77.5236 130.919 77.5236H130.916Z" fill="white"/>
<path d="M144.539 84.2561C144.84 83.8896 145.076 83.4644 145.235 82.9953C145.394 82.5349 145.474 82.054 145.474 81.5584C145.474 81.0629 145.379 80.5644 145.193 80.0894C145.011 79.6231 144.751 79.195 144.427 78.8226C144.09 78.4385 143.683 78.1247 143.215 77.8902C142.725 77.6468 142.191 77.5236 141.628 77.5236H137.567C136.995 77.5236 136.532 77.984 136.532 78.5529V88.4786C136.532 89.0475 136.995 89.5078 137.567 89.5078H137.847C138.419 89.5078 138.882 89.0475 138.882 88.4786V85.6079H140.994L143.218 89.0358C143.409 89.329 143.737 89.5078 144.088 89.5078H144.424C144.801 89.5078 145.152 89.3026 145.332 88.9712C145.512 88.6399 145.497 88.2382 145.294 87.9215L143.492 85.1446C143.893 84.913 144.244 84.6168 144.539 84.2591V84.2561ZM138.879 79.8606H141.625C141.811 79.8606 141.982 79.8988 142.147 79.9838C142.342 80.0806 142.507 80.2037 142.651 80.3621C142.799 80.5233 142.914 80.7051 142.996 80.9163C143.079 81.1245 143.12 81.3327 143.12 81.5555C143.12 81.7784 143.082 82.0071 143.008 82.227C142.934 82.4381 142.834 82.6199 142.701 82.7841C142.578 82.9366 142.43 83.0539 142.25 83.1507C142.1 83.2298 141.929 83.268 141.722 83.268H138.876V79.8606H138.879Z" fill="white"/>
<path d="M155.861 78.1423C155.696 77.767 155.324 77.5236 154.911 77.5236H154.658C154.245 77.5236 153.873 77.767 153.708 78.1394L149.352 88.0652C149.213 88.3848 149.243 88.7513 149.434 89.0416C149.626 89.3319 149.951 89.5078 150.302 89.5078H150.611C151.021 89.5078 151.396 89.2645 151.558 88.8921L152.847 85.9598H156.707L157.996 88.8921C158.161 89.2674 158.533 89.5078 158.943 89.5078H159.252C159.6 89.5078 159.928 89.3319 160.12 89.0416C160.311 88.7513 160.341 88.3848 160.202 88.0681L155.858 78.1423H155.861ZM153.867 83.6169L154.781 81.5379L155.687 83.6169H153.867Z" fill="white"/>
<path d="M172.937 77.5236H172.627C172.214 77.5236 171.843 77.767 171.678 78.1423L168.436 85.5522L165.183 78.1423C165.018 77.767 164.647 77.5236 164.234 77.5236H163.939C163.591 77.5236 163.263 77.6996 163.072 77.9899C162.88 78.2801 162.85 78.6467 162.989 78.9634L167.333 88.8862C167.498 89.2615 167.87 89.5049 168.283 89.5049H168.593C169.006 89.5049 169.377 89.2615 169.542 88.8862L173.886 78.9634C174.025 78.6438 173.996 78.2801 173.804 77.9899C173.612 77.6996 173.288 77.5236 172.937 77.5236Z" fill="white"/>
<path d="M186.149 87.1679H180.914V84.5699H185.265C185.837 84.5699 186.3 84.1095 186.3 83.5407V83.2621C186.3 82.6932 185.837 82.2329 185.265 82.2329H180.914V79.8607H186.023C186.595 79.8607 187.058 79.4003 187.058 78.8314V78.5499C187.058 77.9811 186.595 77.5207 186.023 77.5207H179.599C179.027 77.5207 178.564 77.9811 178.564 78.5499V88.4757C178.564 89.0446 179.027 89.5049 179.599 89.5049H186.149C186.722 89.5049 187.185 89.0446 187.185 88.4757V88.1971C187.185 87.6283 186.722 87.1679 186.149 87.1679Z" fill="white"/>
<path d="M199.828 87.1679H194.593V78.5529C194.593 77.984 194.13 77.5236 193.558 77.5236H193.278C192.706 77.5236 192.243 77.984 192.243 78.5529V88.4786C192.243 89.0475 192.706 89.5078 193.278 89.5078H199.828C200.4 89.5078 200.863 89.0475 200.863 88.4786V88.2001C200.863 87.6312 200.4 87.1708 199.828 87.1708V87.1679Z" fill="white"/>
</svg>
