<svg width="16" height="16" viewBox="0 0 16 16" fill="none" xmlns="http://www.w3.org/2000/svg">
<g clip-path="url(#clip0_331_3060)">
<path d="M14.5286 12.469C14.2867 13.028 14.0002 13.5426 13.6684 14.0157C13.2161 14.6606 12.8457 15.107 12.5603 15.3549C12.1178 15.7618 11.6438 15.9702 11.1361 15.982C10.7717 15.982 10.3322 15.8783 9.82063 15.668C9.30736 15.4586 8.83567 15.3549 8.40438 15.3549C7.95204 15.3549 7.46692 15.4586 6.94803 15.668C6.42834 15.8783 6.00969 15.988 5.6896 15.9988C5.2028 16.0196 4.71758 15.8052 4.23325 15.3549C3.92412 15.0853 3.53747 14.6231 3.07427 13.9683C2.5773 13.269 2.16872 12.4582 1.84863 11.5338C1.50583 10.5353 1.33398 9.56839 1.33398 8.63232C1.33398 7.56006 1.56568 6.63524 2.02976 5.86026C2.39449 5.23776 2.87971 4.74671 3.487 4.38623C4.09429 4.02574 4.75047 3.84205 5.45711 3.83029C5.84377 3.83029 6.35081 3.94989 6.98092 4.18495C7.60924 4.42079 8.01268 4.54039 8.18957 4.54039C8.32181 4.54039 8.76999 4.40055 9.52977 4.12174C10.2483 3.86318 10.8547 3.75612 11.3514 3.79829C12.6976 3.90693 13.7089 4.43758 14.3815 5.3936C13.1776 6.12306 12.582 7.14476 12.5939 8.45544C12.6047 9.47634 12.9751 10.3259 13.703 11.0004C14.0328 11.3135 14.4012 11.5555 14.8111 11.7273C14.7222 11.9851 14.6284 12.232 14.5286 12.469ZM11.4413 0.320274C11.4413 1.12046 11.149 1.86759 10.5663 2.55912C9.86309 3.38122 9.01255 3.85627 8.09021 3.78131C8.07846 3.68531 8.07165 3.58427 8.07165 3.47811C8.07165 2.70993 8.40605 1.88783 8.99991 1.21565C9.2964 0.875319 9.67347 0.592335 10.1307 0.366593C10.587 0.14422 11.0186 0.0212425 11.4245 0.000183105C11.4364 0.107155 11.4413 0.214134 11.4413 0.320264V0.320274Z" fill="white"/>
</g>
<defs>
<clipPath id="clip0_331_3060">
<rect width="16" height="16" fill="white"/>
</clipPath>
</defs>
</svg>
