<svg width="14" height="14" viewBox="0 0 14 14" fill="none" xmlns="http://www.w3.org/2000/svg">
<g clip-path="url(#clip0_331_3079)">
<path d="M7 5.72726V8.43818H10.7673C10.6018 9.31 10.1054 10.0482 9.36088 10.5446L11.6327 12.3073C12.9563 11.0855 13.72 9.29096 13.72 7.15915C13.72 6.6628 13.6754 6.18548 13.5927 5.72734L7 5.72726Z" fill="#4285F4"/>
<path d="M3.07604 8.33234L2.56367 8.72456L0.75 10.1373C1.90182 12.4218 4.26255 14 6.99889 14C8.88884 14 10.4734 13.3764 11.6316 12.3073L9.35977 10.5445C8.73613 10.9645 7.94067 11.2191 6.99889 11.2191C5.1789 11.2191 3.63258 9.99094 3.07891 8.33638L3.07604 8.33234Z" fill="#34A853"/>
<path d="M0.750854 3.86273C0.273608 4.80451 0 5.86725 0 6.99996C0 8.13267 0.273608 9.19542 0.750854 10.1372C0.750854 10.1435 3.07999 8.32992 3.07999 8.32992C2.93999 7.90992 2.85724 7.4645 2.85724 6.99989C2.85724 6.53528 2.93999 6.08986 3.07999 5.66986L0.750854 3.86273Z" fill="#FBBC05"/>
<path d="M6.99903 2.78727C8.02996 2.78727 8.94631 3.14362 9.67812 3.83091L11.6826 1.82639C10.4672 0.69368 8.88906 0 6.99903 0C4.26269 0 1.90182 1.57182 0.75 3.86273L3.07906 5.67001C3.63266 4.01544 5.17904 2.78727 6.99903 2.78727Z" fill="#EA4335"/>
</g>
<defs>
<clipPath id="clip0_331_3079">
<rect width="14" height="14" fill="white"/>
</clipPath>
</defs>
</svg>
